G04*
G04 #@! TF.GenerationSoftware,Altium Limited,Altium Designer,20.1.7 (139)*
G04*
G04 Layer_Physical_Order=1*
G04 Layer_Color=255*
%FSLAX25Y25*%
%MOIN*%
G70*
G04*
G04 #@! TF.SameCoordinates,340D3123-0E3B-44FA-9BA9-5BA34B2CC4A0*
G04*
G04*
G04 #@! TF.FilePolarity,Positive*
G04*
G01*
G75*
%ADD13C,0.01000*%
%ADD14C,0.00600*%
%ADD16R,0.03740X0.03347*%
%ADD17R,0.03543X0.03937*%
%ADD18R,0.03347X0.03740*%
%ADD19R,0.16535X0.14094*%
%ADD20O,0.02362X0.04724*%
%ADD21R,0.05118X0.10630*%
%ADD22R,0.03937X0.03543*%
G04:AMPARAMS|DCode=23|XSize=9.45mil|YSize=23.62mil|CornerRadius=1.98mil|HoleSize=0mil|Usage=FLASHONLY|Rotation=90.000|XOffset=0mil|YOffset=0mil|HoleType=Round|Shape=RoundedRectangle|*
%AMROUNDEDRECTD23*
21,1,0.00945,0.01965,0,0,90.0*
21,1,0.00548,0.02362,0,0,90.0*
1,1,0.00397,0.00983,0.00274*
1,1,0.00397,0.00983,-0.00274*
1,1,0.00397,-0.00983,-0.00274*
1,1,0.00397,-0.00983,0.00274*
%
%ADD23ROUNDEDRECTD23*%
%ADD24R,0.09646X0.08465*%
%ADD25R,0.04528X0.06693*%
%ADD26R,0.06693X0.21260*%
G04:AMPARAMS|DCode=27|XSize=139.76mil|YSize=137.8mil|CornerRadius=34.45mil|HoleSize=0mil|Usage=FLASHONLY|Rotation=0.000|XOffset=0mil|YOffset=0mil|HoleType=Round|Shape=RoundedRectangle|*
%AMROUNDEDRECTD27*
21,1,0.13976,0.06890,0,0,0.0*
21,1,0.07087,0.13780,0,0,0.0*
1,1,0.06890,0.03543,-0.03445*
1,1,0.06890,-0.03543,-0.03445*
1,1,0.06890,-0.03543,0.03445*
1,1,0.06890,0.03543,0.03445*
%
%ADD27ROUNDEDRECTD27*%
G04:AMPARAMS|DCode=45|XSize=64.96mil|YSize=94.49mil|CornerRadius=1.95mil|HoleSize=0mil|Usage=FLASHONLY|Rotation=0.000|XOffset=0mil|YOffset=0mil|HoleType=Round|Shape=RoundedRectangle|*
%AMROUNDEDRECTD45*
21,1,0.06496,0.09059,0,0,0.0*
21,1,0.06106,0.09449,0,0,0.0*
1,1,0.00390,0.03053,-0.04530*
1,1,0.00390,-0.03053,-0.04530*
1,1,0.00390,-0.03053,0.04530*
1,1,0.00390,0.03053,0.04530*
%
%ADD45ROUNDEDRECTD45*%
%ADD46C,0.01968*%
G04:AMPARAMS|DCode=47|XSize=118.11mil|YSize=118.11mil|CornerRadius=29.53mil|HoleSize=0mil|Usage=FLASHONLY|Rotation=0.000|XOffset=0mil|YOffset=0mil|HoleType=Round|Shape=RoundedRectangle|*
%AMROUNDEDRECTD47*
21,1,0.11811,0.05906,0,0,0.0*
21,1,0.05906,0.11811,0,0,0.0*
1,1,0.05906,0.02953,-0.02953*
1,1,0.05906,-0.02953,-0.02953*
1,1,0.05906,-0.02953,0.02953*
1,1,0.05906,0.02953,0.02953*
%
%ADD47ROUNDEDRECTD47*%
%ADD48C,0.11811*%
%ADD49C,0.01968*%
%ADD50C,0.02362*%
G36*
X116142Y4734D02*
X90551D01*
Y18513D01*
X104331D01*
Y66604D01*
X110236D01*
X110236Y66604D01*
X110665Y66690D01*
X111029Y66933D01*
X111272Y67297D01*
X111358Y67726D01*
X111272Y68155D01*
X111029Y68519D01*
X111029Y68519D01*
X110636Y68913D01*
X110272Y69156D01*
X109843Y69241D01*
X109413Y69156D01*
X109049Y68913D01*
X109006Y68848D01*
X104331D01*
Y73632D01*
X116142D01*
Y4734D01*
D02*
G37*
G36*
X99213Y61614D02*
X99213Y54921D01*
X97244Y52559D01*
X86463D01*
X86267Y53019D01*
X94488Y61614D01*
X99213Y61614D01*
D02*
G37*
G36*
X9449Y6309D02*
X3150D01*
Y34655D01*
X9449D01*
Y6309D01*
D02*
G37*
G36*
X135827Y4734D02*
X124016D01*
Y73632D01*
X135827D01*
Y4734D01*
D02*
G37*
G36*
X23121Y46574D02*
Y46358D01*
X23336D01*
X37402Y32293D01*
Y14576D01*
X27559Y4734D01*
X13780D01*
Y34261D01*
X5906Y42135D01*
Y50010D01*
X5906D01*
X7874Y51978D01*
X17717D01*
X23121Y46574D01*
D02*
G37*
G36*
X100394Y22450D02*
X88583D01*
X86614Y20482D01*
X86614Y4734D01*
X68898D01*
X57087Y16545D01*
Y32293D01*
X66929Y42135D01*
X100394D01*
Y22450D01*
D02*
G37*
D13*
X25591Y45984D02*
X26969Y44606D01*
X25591Y53750D02*
Y56309D01*
X22047Y67726D02*
X25591Y71269D01*
X37303Y55128D02*
X39370D01*
X40551Y53947D01*
X43209D01*
X43307Y53848D01*
X37303Y61427D02*
X40157D01*
X42520Y59065D01*
X37697Y68120D02*
X41866D01*
X42783Y67202D01*
X47610Y55100D02*
X49579D01*
X49606Y55128D01*
X46358Y53848D02*
X47610Y55100D01*
X46457Y61033D02*
X49606D01*
X48228Y67913D02*
Y70866D01*
X55118Y55907D02*
X57866Y53159D01*
X55118Y67421D02*
X55610Y67913D01*
X63540Y46154D02*
Y46654D01*
X64567Y60639D02*
Y63887D01*
X62992Y59065D02*
X64567Y60639D01*
X69480Y53364D02*
Y53954D01*
Y53364D02*
X72252Y50592D01*
Y50100D02*
Y50592D01*
X73524Y67913D02*
X73917Y68307D01*
X78106Y46894D02*
X80709Y44291D01*
X82933D01*
X77692Y70409D02*
X77953Y70669D01*
X77692Y68893D02*
Y70409D01*
X77106Y68307D02*
X77692Y68893D01*
X79326Y67913D02*
X82087D01*
X78740Y67328D02*
X79326Y67913D01*
X78740Y65920D02*
Y67328D01*
X87124Y68021D02*
X87205Y68102D01*
Y67913D02*
X90158D01*
X96054Y52894D02*
X96250Y52697D01*
X96457Y57776D02*
X96752Y58071D01*
X98228Y67913D02*
X98416Y67726D01*
X109843Y68120D02*
X110236Y67726D01*
X13995Y48256D02*
Y52892D01*
X22047Y60945D02*
Y67726D01*
X25591Y45984D02*
Y48632D01*
Y56309D02*
X27746Y58465D01*
X31988Y48927D02*
X32087Y48828D01*
X31988Y48927D02*
Y55128D01*
X37008Y48632D02*
X43209D01*
X43504Y63986D02*
Y68120D01*
X39970Y58465D02*
X41339Y57096D01*
X43209Y48632D02*
X43406Y48435D01*
X49262D02*
X49606Y48779D01*
Y53159D01*
X55118Y55907D02*
Y57096D01*
Y67234D01*
X63540Y46654D02*
X65433Y48547D01*
X67739D01*
X72252Y50100D02*
X73524Y48828D01*
X81083Y48622D02*
Y52785D01*
X78106Y46894D02*
Y53198D01*
X77953Y65132D02*
X78740Y65920D01*
X77953Y64764D02*
Y65132D01*
X86083Y48622D02*
X86102Y48642D01*
X86083Y47441D02*
Y48622D01*
X90158Y63976D02*
Y67913D01*
X96752Y58071D02*
X98219Y56604D01*
X96083Y48622D02*
X96250Y48790D01*
X11811Y46072D02*
X13995Y48256D01*
X26969Y44606D02*
X28819D01*
X43307Y53848D02*
X46358D01*
X43504Y63986D02*
X46457Y61033D01*
X27559Y61614D02*
X31988D01*
X27746Y58465D02*
X39970D01*
X27559Y67913D02*
X31988D01*
X49262Y48435D02*
X55118D01*
X73425Y55128D02*
X76177D01*
X68307D02*
X69480Y53954D01*
X60630Y55128D02*
X60630Y55128D01*
X68307D01*
X57866Y53159D02*
X60630D01*
X76177Y55128D02*
X78106Y53198D01*
X68307Y61230D02*
Y61427D01*
X60630Y59065D02*
X62992D01*
X76186Y61427D02*
X76772Y60841D01*
X73425Y61427D02*
X76186D01*
X68307Y61614D02*
Y62008D01*
X68209Y67529D02*
Y67726D01*
X60532D02*
X60630Y67628D01*
X59946Y71269D02*
X60532Y70683D01*
Y67726D02*
Y70683D01*
X73917Y68307D02*
X77106D01*
X82933Y44291D02*
X86083Y47441D01*
X90158Y67913D02*
X93110D01*
X98416Y67726D02*
X110236D01*
X64173Y57096D02*
X68307Y61230D01*
X60630Y57096D02*
X64173D01*
X64567Y63887D02*
X68209Y67529D01*
X60630Y61033D02*
Y67628D01*
X76772Y57096D02*
Y60841D01*
X67739Y48547D02*
X68209Y49016D01*
X43406Y48435D02*
X49262D01*
X42520Y59065D02*
X49606D01*
X48228Y71269D02*
X59946D01*
X25591D02*
X48228D01*
X41339Y57096D02*
X49606D01*
X13995Y52892D02*
X22047Y60945D01*
X76772Y57096D02*
X81083Y52785D01*
D14*
X96850Y58169D02*
X97008Y58012D01*
D16*
X25591Y48632D02*
D03*
Y53750D02*
D03*
D17*
X37303Y61614D02*
D03*
X31988D02*
D03*
X37303Y67913D02*
D03*
X31988D02*
D03*
X60925D02*
D03*
X55610D02*
D03*
X68209D02*
D03*
X73524D02*
D03*
X31988Y55315D02*
D03*
X37303D02*
D03*
X73524Y49016D02*
D03*
X68209D02*
D03*
D18*
X43898Y67913D02*
D03*
X49016D02*
D03*
X68307Y61614D02*
D03*
X73425D02*
D03*
X82087Y67913D02*
D03*
X87205D02*
D03*
X93110D02*
D03*
X98228D02*
D03*
X37205Y49016D02*
D03*
X32087D02*
D03*
X68307Y55315D02*
D03*
X73425D02*
D03*
D19*
X88583Y31917D02*
D03*
D20*
X96083Y24213D02*
D03*
X91083D02*
D03*
X86083D02*
D03*
X81083D02*
D03*
Y48622D02*
D03*
X86083D02*
D03*
X91083D02*
D03*
X96083D02*
D03*
D21*
X17323Y12608D02*
D03*
X6299D02*
D03*
Y28356D02*
D03*
X17323D02*
D03*
D22*
X44488Y54035D02*
D03*
Y48720D02*
D03*
D23*
X60630Y61033D02*
D03*
Y59065D02*
D03*
Y57096D02*
D03*
Y55128D02*
D03*
Y53159D02*
D03*
X49606D02*
D03*
Y55128D02*
D03*
Y57096D02*
D03*
Y59065D02*
D03*
Y61033D02*
D03*
D24*
X80118Y12608D02*
D03*
X97047D02*
D03*
D25*
X84350Y58071D02*
D03*
X96752D02*
D03*
D26*
X130118Y16545D02*
D03*
X110039D02*
D03*
X130118Y44104D02*
D03*
X110039D02*
D03*
D27*
X29626Y24419D02*
D03*
X64862D02*
D03*
D45*
X55118Y57096D02*
D03*
D46*
X87421Y52894D02*
X91083D01*
X86102Y51575D02*
X87421Y52894D01*
X91083Y48622D02*
Y52894D01*
X86102Y48642D02*
Y48898D01*
Y51575D01*
X96250Y48790D02*
Y52697D01*
X91083Y52894D02*
X96054D01*
X84350Y58071D02*
X88583D01*
X79528D02*
X84350D01*
D47*
X11811Y46072D02*
D03*
X110236Y67726D02*
D03*
D48*
X129921D02*
D03*
X11811Y63789D02*
D03*
D49*
X52854Y57096D02*
D03*
X57382D02*
D03*
X55118Y60836D02*
D03*
Y53356D02*
D03*
D50*
X7874Y20482D02*
D03*
X63540Y46154D02*
D03*
X77953Y70669D02*
D03*
X125984Y30512D02*
D03*
X129921D02*
D03*
X55118Y48435D02*
D03*
X79528Y58071D02*
D03*
X77953Y64764D02*
D03*
X90158Y63976D02*
D03*
X88583Y58071D02*
D03*
X4724Y20482D02*
D03*
X28819Y44606D02*
D03*
X27559Y61614D02*
D03*
Y67913D02*
D03*
X133858Y30512D02*
D03*
M02*
