G04*
G04 #@! TF.GenerationSoftware,Altium Limited,Altium Designer,20.1.7 (139)*
G04*
G04 Layer_Color=8421504*
%FSLAX25Y25*%
%MOIN*%
G70*
G04*
G04 #@! TF.SameCoordinates,340D3123-0E3B-44FA-9BA9-5BA34B2CC4A0*
G04*
G04*
G04 #@! TF.FilePolarity,Positive*
G04*
G01*
G75*
%ADD15R,0.05906X0.04193*%
%ADD16R,0.03740X0.03347*%
%ADD17R,0.03543X0.03937*%
%ADD18R,0.03347X0.03740*%
%ADD19R,0.16535X0.14094*%
%ADD20O,0.02362X0.04724*%
%ADD21R,0.05118X0.10630*%
%ADD22R,0.03937X0.03543*%
G04:AMPARAMS|DCode=23|XSize=9.45mil|YSize=23.62mil|CornerRadius=1.98mil|HoleSize=0mil|Usage=FLASHONLY|Rotation=90.000|XOffset=0mil|YOffset=0mil|HoleType=Round|Shape=RoundedRectangle|*
%AMROUNDEDRECTD23*
21,1,0.00945,0.01965,0,0,90.0*
21,1,0.00548,0.02362,0,0,90.0*
1,1,0.00397,0.00983,0.00274*
1,1,0.00397,0.00983,-0.00274*
1,1,0.00397,-0.00983,-0.00274*
1,1,0.00397,-0.00983,0.00274*
%
%ADD23ROUNDEDRECTD23*%
%ADD24R,0.09646X0.08465*%
%ADD25R,0.04528X0.06693*%
%ADD26R,0.06693X0.21260*%
G04:AMPARAMS|DCode=27|XSize=139.76mil|YSize=137.8mil|CornerRadius=34.45mil|HoleSize=0mil|Usage=FLASHONLY|Rotation=0.000|XOffset=0mil|YOffset=0mil|HoleType=Round|Shape=RoundedRectangle|*
%AMROUNDEDRECTD27*
21,1,0.13976,0.06890,0,0,0.0*
21,1,0.07087,0.13780,0,0,0.0*
1,1,0.06890,0.03543,-0.03445*
1,1,0.06890,-0.03543,-0.03445*
1,1,0.06890,-0.03543,0.03445*
1,1,0.06890,0.03543,0.03445*
%
%ADD27ROUNDEDRECTD27*%
D15*
X55118Y54606D02*
D03*
Y59586D02*
D03*
D16*
X25591Y48632D02*
D03*
Y53750D02*
D03*
D17*
X37303Y61614D02*
D03*
X31988D02*
D03*
X37303Y67913D02*
D03*
X31988D02*
D03*
X60925D02*
D03*
X55610D02*
D03*
X68209D02*
D03*
X73524D02*
D03*
X31988Y55315D02*
D03*
X37303D02*
D03*
X73524Y49016D02*
D03*
X68209D02*
D03*
D18*
X43898Y67913D02*
D03*
X49016D02*
D03*
X68307Y61614D02*
D03*
X73425D02*
D03*
X82087Y67913D02*
D03*
X87205D02*
D03*
X93110D02*
D03*
X98228D02*
D03*
X37205Y49016D02*
D03*
X32087D02*
D03*
X68307Y55315D02*
D03*
X73425D02*
D03*
D19*
X88583Y31917D02*
D03*
D20*
X96083Y24213D02*
D03*
X91083D02*
D03*
X86083D02*
D03*
X81083D02*
D03*
Y48622D02*
D03*
X86083D02*
D03*
X91083D02*
D03*
X96083D02*
D03*
D21*
X17323Y12608D02*
D03*
X6299D02*
D03*
Y28356D02*
D03*
X17323D02*
D03*
D22*
X44488Y54035D02*
D03*
Y48720D02*
D03*
D23*
X60630Y61033D02*
D03*
Y59065D02*
D03*
Y57096D02*
D03*
Y55128D02*
D03*
Y53159D02*
D03*
X49606D02*
D03*
Y55128D02*
D03*
Y57096D02*
D03*
Y59065D02*
D03*
Y61033D02*
D03*
D24*
X80118Y12608D02*
D03*
X97047D02*
D03*
D25*
X84350Y58071D02*
D03*
X96752D02*
D03*
D26*
X130118Y16545D02*
D03*
X110039D02*
D03*
X130118Y44104D02*
D03*
X110039D02*
D03*
D27*
X29626Y24419D02*
D03*
X64862D02*
D03*
M02*
