G04*
G04 #@! TF.GenerationSoftware,Altium Limited,Altium Designer,20.1.7 (139)*
G04*
G04 Layer_Color=8388736*
%FSLAX25Y25*%
%MOIN*%
G70*
G04*
G04 #@! TF.SameCoordinates,340D3123-0E3B-44FA-9BA9-5BA34B2CC4A0*
G04*
G04*
G04 #@! TF.FilePolarity,Negative*
G04*
G01*
G75*
%ADD28R,0.04540X0.04147*%
%ADD29R,0.04343X0.04737*%
%ADD30R,0.04147X0.04540*%
%ADD31R,0.17335X0.14895*%
%ADD32O,0.03162X0.05524*%
%ADD33R,0.05918X0.11430*%
%ADD34R,0.04737X0.04343*%
G04:AMPARAMS|DCode=35|XSize=17.45mil|YSize=31.62mil|CornerRadius=5.98mil|HoleSize=0mil|Usage=FLASHONLY|Rotation=90.000|XOffset=0mil|YOffset=0mil|HoleType=Round|Shape=RoundedRectangle|*
%AMROUNDEDRECTD35*
21,1,0.01745,0.01965,0,0,90.0*
21,1,0.00548,0.03162,0,0,90.0*
1,1,0.01197,0.00983,0.00274*
1,1,0.01197,0.00983,-0.00274*
1,1,0.01197,-0.00983,-0.00274*
1,1,0.01197,-0.00983,0.00274*
%
%ADD35ROUNDEDRECTD35*%
G04:AMPARAMS|DCode=36|XSize=72.96mil|YSize=102.49mil|CornerRadius=5.95mil|HoleSize=0mil|Usage=FLASHONLY|Rotation=0.000|XOffset=0mil|YOffset=0mil|HoleType=Round|Shape=RoundedRectangle|*
%AMROUNDEDRECTD36*
21,1,0.07296,0.09059,0,0,0.0*
21,1,0.06106,0.10249,0,0,0.0*
1,1,0.01190,0.03053,-0.04530*
1,1,0.01190,-0.03053,-0.04530*
1,1,0.01190,-0.03053,0.04530*
1,1,0.01190,0.03053,0.04530*
%
%ADD36ROUNDEDRECTD36*%
%ADD37R,0.10446X0.09265*%
%ADD38R,0.05328X0.07493*%
%ADD39R,0.07493X0.22060*%
G04:AMPARAMS|DCode=40|XSize=147.76mil|YSize=145.8mil|CornerRadius=38.45mil|HoleSize=0mil|Usage=FLASHONLY|Rotation=0.000|XOffset=0mil|YOffset=0mil|HoleType=Round|Shape=RoundedRectangle|*
%AMROUNDEDRECTD40*
21,1,0.14776,0.06890,0,0,0.0*
21,1,0.07087,0.14580,0,0,0.0*
1,1,0.07690,0.03543,-0.03445*
1,1,0.07690,-0.03543,-0.03445*
1,1,0.07690,-0.03543,0.03445*
1,1,0.07690,0.03543,0.03445*
%
%ADD40ROUNDEDRECTD40*%
G04:AMPARAMS|DCode=41|XSize=126.11mil|YSize=126.11mil|CornerRadius=33.53mil|HoleSize=0mil|Usage=FLASHONLY|Rotation=0.000|XOffset=0mil|YOffset=0mil|HoleType=Round|Shape=RoundedRectangle|*
%AMROUNDEDRECTD41*
21,1,0.12611,0.05906,0,0,0.0*
21,1,0.05906,0.12611,0,0,0.0*
1,1,0.06706,0.02953,-0.02953*
1,1,0.06706,-0.02953,-0.02953*
1,1,0.06706,-0.02953,0.02953*
1,1,0.06706,0.02953,0.02953*
%
%ADD41ROUNDEDRECTD41*%
%ADD42C,0.12611*%
%ADD43C,0.02769*%
%ADD44C,0.03162*%
D28*
X25591Y48632D02*
D03*
Y53750D02*
D03*
D29*
X37303Y61614D02*
D03*
X31988D02*
D03*
X37303Y67913D02*
D03*
X31988D02*
D03*
X60925D02*
D03*
X55610D02*
D03*
X68209D02*
D03*
X73524D02*
D03*
X31988Y55315D02*
D03*
X37303D02*
D03*
X73524Y49016D02*
D03*
X68209D02*
D03*
D30*
X43898Y67913D02*
D03*
X49016D02*
D03*
X68307Y61614D02*
D03*
X73425D02*
D03*
X82087Y67913D02*
D03*
X87205D02*
D03*
X93110D02*
D03*
X98228D02*
D03*
X37205Y49016D02*
D03*
X32087D02*
D03*
X68307Y55315D02*
D03*
X73425D02*
D03*
D31*
X88583Y31917D02*
D03*
D32*
X96083Y24213D02*
D03*
X91083D02*
D03*
X86083D02*
D03*
X81083D02*
D03*
Y48622D02*
D03*
X86083D02*
D03*
X91083D02*
D03*
X96083D02*
D03*
D33*
X17323Y12608D02*
D03*
X6299D02*
D03*
Y28356D02*
D03*
X17323D02*
D03*
D34*
X44488Y54035D02*
D03*
Y48720D02*
D03*
D35*
X60630Y61033D02*
D03*
Y59065D02*
D03*
Y57096D02*
D03*
Y55128D02*
D03*
Y53159D02*
D03*
X49606D02*
D03*
Y55128D02*
D03*
Y57096D02*
D03*
Y59065D02*
D03*
Y61033D02*
D03*
D36*
X55118Y57096D02*
D03*
D37*
X80118Y12608D02*
D03*
X97047D02*
D03*
D38*
X84350Y58071D02*
D03*
X96752D02*
D03*
D39*
X130118Y16545D02*
D03*
X110039D02*
D03*
X130118Y44104D02*
D03*
X110039D02*
D03*
D40*
X29626Y24419D02*
D03*
X64862D02*
D03*
D41*
X11811Y46072D02*
D03*
X110236Y67726D02*
D03*
D42*
X129921D02*
D03*
X11811Y63789D02*
D03*
D43*
X52854Y57096D02*
D03*
X57382D02*
D03*
X55118Y60836D02*
D03*
Y53356D02*
D03*
D44*
X7874Y20482D02*
D03*
X63540Y46154D02*
D03*
X77953Y70669D02*
D03*
X125984Y30512D02*
D03*
X129921D02*
D03*
X55118Y48435D02*
D03*
X79528Y58071D02*
D03*
X77953Y64764D02*
D03*
X90158Y63976D02*
D03*
X88583Y58071D02*
D03*
X4724Y20482D02*
D03*
X28819Y44606D02*
D03*
X27559Y61614D02*
D03*
Y67913D02*
D03*
X133858Y30512D02*
D03*
M02*
