M48
;Layer_Color=9474304
;FILE_FORMAT=2:5
INCH,TZ
;TYPE=PLATED
T1F00S00C0.00787
T2F00S00C0.01181
T3F00S00C0.05906
%
T01
X55118Y53356
X52854Y57096
X57382
X55118Y60836
T02
X4724Y20482
X7874
X28819Y44606
X27559Y61614
Y67913
X55118Y48435
X63540Y46154
X79528Y58071
X77953Y64764
Y70669
X90158Y63976
X88583Y58071
X125984Y30512
X129921
X133858
T03
X11811Y46072
Y63789
X110236Y67726
X129921
M30
